<?xml version="1.0" encoding="UTF-8"?>
<svg width="16px" height="22px" viewBox="0 0 16 22" version="1.1" xmlns="http://www.w3.org/2000/svg" xmlns:xlink="http://www.w3.org/1999/xlink">
    <title>map-marker-alt</title>
    <g id="Page-1" stroke="none" stroke-width="1" fill="none" fill-rule="evenodd">
        <g id="map-marker-alt" fill="#FFFFFF" fill-rule="nonzero">
            <path d="M7.17783333,20.9029167 C1.12375,12.1262917 0,11.2255417 0,8 C0,3.58170833 3.58170833,0 8,0 C12.4182917,0 16,3.58170833 16,8 C16,11.2255417 14.87625,12.1262917 8.82216667,20.9029167 C8.424875,21.4768333 7.57508333,21.4767917 7.17783333,20.9029167 Z M8,11.3333333 C9.84095833,11.3333333 11.3333333,9.84095833 11.3333333,8 C11.3333333,6.15904167 9.84095833,4.66666667 8,4.66666667 C6.15904167,4.66666667 4.66666667,6.15904167 4.66666667,8 C4.66666667,9.84095833 6.15904167,11.3333333 8,11.3333333 Z" id="Shape"></path>
        </g>
    </g>
</svg>