<?xml version="1.0" encoding="UTF-8"?>
<svg width="16px" height="18px" viewBox="0 0 7 12" version="1.1" xmlns="http://www.w3.org/2000/svg" xmlns:xlink="http://www.w3.org/1999/xlink">
    <title>Shape</title>
    <g id="Page-1" stroke="none" stroke-width="1" fill="none" fill-rule="evenodd">
        <g id="mobile-alt" fill="#FFFFFF" fill-rule="nonzero">
            <path d="M5.95,0 L1.05,0 C0.4703125,0 0,0.50390625 0,1.125 L0,10.875 C0,11.4960938 0.4703125,12 1.05,12 L5.95,12 C6.5296875,12 7,11.4960938 7,10.875 L7,1.125 C7,0.50390625 6.5296875,0 5.95,0 Z M3.5,11.25 C3.1128125,11.25 2.8,10.9148437 2.8,10.5 C2.8,10.0851563 3.1128125,9.75 3.5,9.75 C3.8871875,9.75 4.2,10.0851563 4.2,10.5 C4.2,10.9148437 3.8871875,11.25 3.5,11.25 Z M5.95,8.71875 C5.95,8.8734375 5.831875,9 5.6875,9 L1.3125,9 C1.168125,9 1.05,8.8734375 1.05,8.71875 L1.05,1.40625 C1.05,1.2515625 1.168125,1.125 1.3125,1.125 L5.6875,1.125 C5.831875,1.125 5.95,1.2515625 5.95,1.40625 L5.95,8.71875 Z" id="Shape"></path>
        </g>
    </g>
</svg>