<?xml version="1.0" encoding="UTF-8"?>
<svg width="129px" height="28px" viewBox="0 0 129 28" version="1.1" xmlns="http://www.w3.org/2000/svg" xmlns:xlink="http://www.w3.org/1999/xlink">
    <title>clemo.</title>
    <g id="Page-1" stroke="none" stroke-width="1" fill="none" fill-rule="evenodd">
        <g id="clemo" transform="translate(-5.000000, -14.000000)" fill="#000000" fill-rule="nonzero">
            <path d="M15.952,41.288 C17.992,41.288 19.774,40.856 21.298,39.992 C22.822,39.128 23.932,37.928 24.628,36.392 L24.628,36.392 L20.272,34.016 C19.288,35.792 17.836,36.68 15.916,36.68 C14.452,36.68 13.24,36.2 12.28,35.24 C11.32,34.28 10.84,32.972 10.84,31.316 C10.84,29.66 11.32,28.352 12.28,27.392 C13.24,26.432 14.452,25.952 15.916,25.952 C17.812,25.952 19.264,26.84 20.272,28.616 L20.272,28.616 L24.628,26.276 C23.932,24.692 22.822,23.474 21.298,22.622 C19.774,21.77 17.992,21.344 15.952,21.344 C13.888,21.344 12.034,21.77 10.39,22.622 C8.746,23.474 7.462,24.656 6.538,26.168 C5.614,27.68 5.152,29.396 5.152,31.316 C5.152,33.236 5.614,34.952 6.538,36.464 C7.462,37.976 8.746,39.158 10.39,40.01 C12.034,40.862 13.888,41.288 15.952,41.288 Z M33.34,41 L33.34,14.288 L27.724,14.288 L27.724,41 L33.34,41 Z M48.172,41.288 C51.676,41.288 54.34,40.244 56.164,38.156 L56.164,38.156 L53.176,34.916 C52.504,35.564 51.778,36.038 50.998,36.338 C50.218,36.638 49.324,36.788 48.316,36.788 C46.852,36.788 45.628,36.44 44.644,35.744 C43.66,35.048 43.036,34.1 42.772,32.9 L42.772,32.9 L57.424,32.9 C57.496,31.964 57.532,31.46 57.532,31.388 C57.532,29.372 57.094,27.602 56.218,26.078 C55.342,24.554 54.136,23.384 52.6,22.568 C51.064,21.752 49.348,21.344 47.452,21.344 C45.508,21.344 43.75,21.77 42.178,22.622 C40.606,23.474 39.37,24.662 38.47,26.186 C37.57,27.71 37.12,29.42 37.12,31.316 C37.12,33.236 37.576,34.952 38.488,36.464 C39.4,37.976 40.696,39.158 42.376,40.01 C44.056,40.862 45.988,41.288 48.172,41.288 Z M52.24,29.624 L42.7,29.624 C42.892,28.376 43.42,27.392 44.284,26.672 C45.148,25.952 46.216,25.592 47.488,25.592 C48.736,25.592 49.792,25.958 50.656,26.69 C51.52,27.422 52.048,28.4 52.24,29.624 L52.24,29.624 Z M66.892,41 L66.892,31.28 C66.892,29.6 67.276,28.334 68.044,27.482 C68.812,26.63 69.844,26.204 71.14,26.204 C73.588,26.204 74.812,27.728 74.812,30.776 L74.812,30.776 L74.812,41 L80.428,41 L80.428,31.28 C80.428,29.6 80.812,28.334 81.58,27.482 C82.348,26.63 83.392,26.204 84.712,26.204 C85.888,26.204 86.794,26.582 87.43,27.338 C88.066,28.094 88.384,29.24 88.384,30.776 L88.384,30.776 L88.384,41 L94,41 L94,29.912 C94,27.056 93.286,24.914 91.858,23.486 C90.43,22.058 88.504,21.344 86.08,21.344 C84.64,21.344 83.314,21.62 82.102,22.172 C80.89,22.724 79.888,23.504 79.096,24.512 C78.424,23.48 77.536,22.694 76.432,22.154 C75.328,21.614 74.092,21.344 72.724,21.344 C71.476,21.344 70.33,21.56 69.286,21.992 C68.242,22.424 67.36,23.048 66.64,23.864 L66.64,23.864 L66.64,21.632 L61.276,21.632 L61.276,41 L66.892,41 Z M108.472,41.288 C110.512,41.288 112.336,40.862 113.944,40.01 C115.552,39.158 116.812,37.976 117.724,36.464 C118.636,34.952 119.092,33.236 119.092,31.316 C119.092,29.396 118.636,27.68 117.724,26.168 C116.812,24.656 115.552,23.474 113.944,22.622 C112.336,21.77 110.512,21.344 108.472,21.344 C106.432,21.344 104.602,21.77 102.982,22.622 C101.362,23.474 100.096,24.656 99.184,26.168 C98.272,27.68 97.816,29.396 97.816,31.316 C97.816,33.236 98.272,34.952 99.184,36.464 C100.096,37.976 101.362,39.158 102.982,40.01 C104.602,40.862 106.432,41.288 108.472,41.288 Z M108.472,36.68 C107.032,36.68 105.844,36.194 104.908,35.222 C103.972,34.25 103.504,32.948 103.504,31.316 C103.504,29.684 103.972,28.382 104.908,27.41 C105.844,26.438 107.032,25.952 108.472,25.952 C109.912,25.952 111.094,26.438 112.018,27.41 C112.942,28.382 113.404,29.684 113.404,31.316 C113.404,32.948 112.942,34.25 112.018,35.222 C111.094,36.194 109.912,36.68 108.472,36.68 Z M128.724,41.4 C129.897333,41.4 130.910667,40.9733333 131.764,40.12 C132.617333,39.2666667 133.044,38.2266667 133.044,37 C133.044,35.7733333 132.617333,34.7466667 131.764,33.92 C130.910667,33.0933333 129.897333,32.68 128.724,32.68 C127.550667,32.68 126.550667,33.0933333 125.724,33.92 C124.897333,34.7466667 124.484,35.7733333 124.484,37 C124.484,38.2266667 124.897333,39.2666667 125.724,40.12 C126.550667,40.9733333 127.550667,41.4 128.724,41.4 Z" id="clemo."></path>
        </g>
    </g>
</svg>